<svg width="12" height="12" viewBox="0 0 12 12" fill="none" xmlns="http://www.w3.org/2000/svg">
<path d="M0.646155 3.35414C0.599667 3.30771 0.562787 3.25256 0.537625 3.19186C0.512463 3.13117 0.499512 3.0661 0.499512 3.00039C0.499512 2.93469 0.512463 2.86962 0.537625 2.80892C0.562787 2.74822 0.599667 2.69308 0.646155 2.64664L2.64615 0.646644C2.71608 0.576638 2.80521 0.528954 2.90225 0.509629C2.99929 0.490304 3.09989 0.500206 3.1913 0.538082C3.28271 0.575959 3.36083 0.640106 3.41577 0.722403C3.4707 0.8047 3.49998 0.901446 3.49991 1.00039V2.50039H10.9999C11.1325 2.50039 11.2597 2.55307 11.3535 2.64684C11.4472 2.74061 11.4999 2.86779 11.4999 3.00039C11.4999 3.133 11.4472 3.26018 11.3535 3.35395C11.2597 3.44772 11.1325 3.50039 10.9999 3.50039H3.49991V5.00039C3.49998 5.09934 3.4707 5.19609 3.41577 5.27838C3.36083 5.36068 3.28271 5.42483 3.1913 5.46271C3.09989 5.50058 2.99929 5.51048 2.90225 5.49116C2.80521 5.47183 2.71608 5.42415 2.64615 5.35414L0.646155 3.35414ZM11.3537 8.64664L9.35365 6.64664C9.28373 6.57664 9.1946 6.52895 9.09756 6.50963C9.00052 6.4903 8.89992 6.50021 8.80851 6.53808C8.7171 6.57596 8.63898 6.64011 8.58405 6.7224C8.52911 6.8047 8.49983 6.90145 8.4999 7.00039V8.50039H0.999905C0.867297 8.50039 0.74012 8.55307 0.646352 8.64684C0.552584 8.74061 0.499905 8.86779 0.499905 9.00039C0.499905 9.133 0.552584 9.26018 0.646352 9.35395C0.74012 9.44772 0.867297 9.50039 0.999905 9.50039H8.4999V11.0004C8.49983 11.0993 8.52911 11.1961 8.58405 11.2784C8.63898 11.3607 8.7171 11.4248 8.80851 11.4627C8.89992 11.5006 9.00052 11.5105 9.09756 11.4912C9.1946 11.4718 9.28373 11.4241 9.35365 11.3541L11.3537 9.35414C11.4001 9.30771 11.437 9.25256 11.4622 9.19186C11.4873 9.13116 11.5003 9.0661 11.5003 9.00039C11.5003 8.93469 11.4873 8.86962 11.4622 8.80892C11.437 8.74822 11.4001 8.69308 11.3537 8.64664Z" fill="#00A6DB"/>
</svg>
