<svg width="15" height="15" viewBox="0 0 15 15" fill="none" xmlns="http://www.w3.org/2000/svg">
<path d="M14.6155 2.24067C15.1281 1.72809 15.1281 0.897023 14.6155 0.384439C14.103 -0.128146 13.2719 -0.128146 12.7593 0.384439L7.5 5.64376L2.24069 0.384439C1.7281 -0.128145 0.897039 -0.128146 0.384454 0.384439C-0.12813 0.897024 -0.128129 1.72809 0.384454 2.24067L5.64377 7.49999L0.384438 12.7593C-0.128146 13.2719 -0.128146 14.103 0.384438 14.6156C0.897022 15.1281 1.72809 15.1281 2.24067 14.6156L7.5 9.35622L12.7593 14.6156C13.2719 15.1281 14.103 15.1281 14.6156 14.6156C15.1281 14.103 15.1281 13.2719 14.6156 12.7593L9.35623 7.49999L14.6155 2.24067Z" fill="#010101"/>
</svg>
