<svg width="22" height="21" viewBox="0 0 22 21" fill="none" xmlns="http://www.w3.org/2000/svg">
<path d="M10.5602 20.4444V19.3767C8.24535 19.1596 6.33424 18.2974 4.82683 16.79C3.31868 15.2818 2.45646 13.3704 2.24017 11.0556H1.17128C1.01424 11.0556 0.882389 11.0022 0.775723 10.8955C0.669056 10.7889 0.615723 10.6567 0.615723 10.4989C0.615723 10.3411 0.669056 10.2093 0.775723 10.1033C0.882389 9.9974 1.01424 9.94444 1.17128 9.94444H2.24017C2.45646 7.62963 3.31868 5.71852 4.82683 4.21111C6.33498 2.7037 8.24609 1.84148 10.5602 1.62444V0.555555C10.5602 0.398518 10.6135 0.266667 10.7202 0.16C10.8268 0.0533334 10.9591 0 11.1168 0C11.2746 0 11.4065 0.0533334 11.5124 0.16C11.6183 0.266667 11.6713 0.398518 11.6713 0.555555V1.62444C13.9861 1.84074 15.8972 2.70296 17.4046 4.21111C18.912 5.71926 19.7746 7.63037 19.9924 9.94444H21.0602C21.2179 9.94444 21.3498 9.99777 21.4557 10.1044C21.5616 10.2111 21.615 10.3433 21.6157 10.5011C21.6165 10.6589 21.5631 10.7907 21.4557 10.8967C21.3483 11.0026 21.2165 11.0556 21.0602 11.0556H19.9924C19.7753 13.3704 18.9131 15.2815 17.4057 16.7889C15.8976 18.297 13.9861 19.1596 11.6713 19.3767V20.4444C11.6713 20.6022 11.6179 20.7341 11.5113 20.84C11.4046 20.9459 11.2724 20.9993 11.1146 21C10.9568 21.0007 10.825 20.9474 10.7191 20.84C10.6131 20.7326 10.5602 20.6007 10.5602 20.4444ZM11.1157 18.2778C13.2639 18.2778 15.0972 17.5185 16.6157 16C18.1342 14.4815 18.8935 12.6481 18.8935 10.5C18.8935 8.35185 18.1342 6.51852 16.6157 5C15.0972 3.48148 13.2639 2.72222 11.1157 2.72222C8.96757 2.72222 7.13424 3.48148 5.61572 5C4.0972 6.51852 3.33794 8.35185 3.33794 10.5C3.33794 12.6481 4.0972 14.4815 5.61572 16C7.13424 17.5185 8.96757 18.2778 11.1157 18.2778ZM11.1157 13.8333C10.1994 13.8333 9.41461 13.507 8.76127 12.8544C8.10794 12.2018 7.78164 11.417 7.78239 10.5C7.78313 9.58296 8.10942 8.79814 8.76127 8.14555C9.41313 7.49296 10.1979 7.16666 11.1157 7.16666C12.0335 7.16666 12.8183 7.49296 13.4702 8.14555C14.122 8.79814 14.4483 9.58296 14.449 10.5C14.4498 11.417 14.1235 12.2018 13.4702 12.8544C12.8168 13.507 12.032 13.8333 11.1157 13.8333ZM11.1157 12.7222C11.7268 12.7222 12.2502 12.5048 12.6857 12.07C13.1213 11.6352 13.3387 11.1118 13.3379 10.5C13.3372 9.88814 13.1198 9.36518 12.6857 8.93111C12.2516 8.49703 11.7283 8.27925 11.1157 8.27777C10.5031 8.27629 9.98016 8.49407 9.54683 8.93111C9.1135 9.36814 8.89572 9.89111 8.8935 10.5C8.89127 11.1089 9.10905 11.6322 9.54683 12.07C9.98461 12.5078 10.5076 12.7252 11.1157 12.7222Z" fill="#00A6DB"/>
</svg>
