<svg width="17" height="19" viewBox="0 0 17 19" fill="none" xmlns="http://www.w3.org/2000/svg">
<path d="M11.5005 8.04943C11.5005 8.96443 11.137 9.84195 10.49 10.4889C9.84302 11.136 8.9655 11.4994 8.0505 11.4994C7.1355 11.4994 6.25798 11.136 5.61098 10.4889C4.96398 9.84195 4.6005 8.96443 4.6005 8.04943C4.6005 7.13443 4.96398 6.25691 5.61098 5.60991C6.25798 4.96291 7.1355 4.59943 8.0505 4.59943C8.9655 4.59943 9.84302 4.96291 10.49 5.60991C11.137 6.25691 11.5005 7.13443 11.5005 8.04943ZM10.3505 8.04943C10.3505 7.43943 10.1082 6.85442 9.67684 6.42308C9.24551 5.99175 8.6605 5.74943 8.0505 5.74943C7.4405 5.74943 6.85549 5.99175 6.42415 6.42308C5.99282 6.85442 5.7505 7.43943 5.7505 8.04943C5.7505 8.65943 5.99282 9.24444 6.42415 9.67578C6.85549 10.1071 7.4405 10.3494 8.0505 10.3494C8.6605 10.3494 9.24551 10.1071 9.67684 9.67578C10.1082 9.24444 10.3505 8.65943 10.3505 8.04943ZM13.743 13.7477C15.2528 12.2371 16.101 10.1887 16.101 8.05288C16.101 5.91709 15.2528 3.86871 13.743 2.35808C12.9955 1.61048 12.108 1.01745 11.1313 0.612848C10.1546 0.208247 9.10771 0 8.0505 0C6.99329 0 5.94643 0.208247 4.96971 0.612848C3.99298 1.01745 3.10552 1.61048 2.358 2.35808C0.848156 3.86871 0 5.91709 0 8.05288C0 10.1887 0.848156 12.2371 2.358 13.7477L4.10715 15.4715L6.4566 17.7543L6.60955 17.89C7.5008 18.6122 8.80605 18.5662 9.64555 17.7543L12.4458 15.0288L13.743 13.7477ZM3.16875 3.16883C3.80957 2.52729 4.57056 2.01836 5.40821 1.67112C6.24586 1.32388 7.14373 1.14515 8.0505 1.14515C8.95727 1.14515 9.85514 1.32388 10.6928 1.67112C11.5304 2.01836 12.2914 2.52729 12.9322 3.16883C14.1907 4.42888 14.9141 6.12603 14.9518 7.90645C14.9895 9.68687 14.3386 11.4131 13.1346 12.7253L12.9322 12.9369L11.4131 14.4365L8.8486 16.9309L8.7405 17.0229C8.54132 17.172 8.29913 17.2525 8.05031 17.2523C7.80148 17.2521 7.55943 17.1712 7.3605 17.0217L7.25355 16.9297L3.82655 13.589L3.16875 12.9369L2.96635 12.7265C1.76243 11.4143 1.11146 9.68802 1.14917 7.9076C1.18687 6.12718 1.91035 4.42888 3.16875 3.16883Z" fill="#00A6DB"/>
</svg>
