<svg width="86" height="50" viewBox="0 0 86 50" fill="none" xmlns="http://www.w3.org/2000/svg">
<path d="M83.4805 39.1606L80.1612 21.3164C80.0413 20.7108 79.5214 20.2869 78.9215 20.2869H64.8648C64.2649 20.2869 63.7451 19.863 63.6251 19.2575L60.5058 3.18963C60.3858 2.58406 59.866 2.16016 59.2661 2.16016H25.274C24.6341 2.16016 24.0943 2.64461 24.0143 3.31074L22.4347 19.0758C22.3747 19.7217 21.8348 20.2264 21.175 20.2264H6.01848C5.37863 20.2264 4.83875 20.7108 4.75877 21.3366L2.57928 39.2413C2.4793 40.0084 3.07916 40.6745 3.83898 40.6745H16.3561C16.1761 41.8251 16.3161 43.1371 16.476 44.1464C17.0959 48.4056 20.5351 48.1634 24.2142 48.1634C25.414 48.1634 26.7337 48.1028 27.8534 47.7395H27.9134C30.3728 46.9522 30.9127 43.2583 30.5528 40.6745H54.4072C54.2273 41.8453 54.3672 43.1371 54.5272 44.1464C55.1471 48.4056 58.5863 48.1634 62.2654 48.1634C63.4651 48.1634 64.7848 48.1028 65.9046 47.7395H65.9645C68.424 46.9522 68.9638 43.2583 68.6039 40.6745H82.2607C83.0406 40.6745 83.6404 39.9478 83.5005 39.1606H83.4805Z" fill="black"/>
<path d="M9.99739 38.9989C8.81767 39.1402 6.15828 39.3218 6.0983 38.9989C5.15852 32.7817 6.73815 21.3969 6.73815 21.3969C14.6763 21.4575 11.2571 20.0647 11.9969 28.5831C13.0367 24.7478 13.2766 21.1143 14.6363 21.1143C15.996 21.1143 17.0957 21.0538 17.0957 21.0538C17.2957 24.7881 16.7958 26.726 17.3957 28.3005C18.3355 24.8083 17.5356 21.0942 19.1553 21.1547C20.7749 21.2153 22.6345 22.0227 23.7942 20.6299C23.7942 20.6299 21.3348 34.8003 19.2752 39.0191C18.9353 39.7054 15.1962 39.0594 15.1962 39.0594C15.1962 39.0594 15.2562 38.4337 14.1364 33.3671C14.0365 32.8826 11.1171 38.8778 9.9774 39.0191L9.99739 38.9989Z" fill="white"/>
<path d="M22.4544 39.1001C20.2149 38.9387 26.1335 23.2544 25.8136 4.60277C25.7936 3.1494 27.4732 4.21924 41.7499 4.21924C43.6095 4.21924 40.9701 9.64919 40.9301 11.2641C40.9101 12.4752 37.9508 11.7081 33.5318 12.6569C32.932 12.9597 33.2319 14.2314 33.1319 14.958C32.972 16.2096 37.011 15.6444 39.8504 16.3912L38.7906 23.9811C32.4721 24.6472 33.0319 21.1752 33.5518 28.9871C43.1096 29.0679 40.0903 29.3101 40.0103 38.9992C40.0103 38.9992 26.8134 39.3827 22.4344 39.08L22.4544 39.1001Z" fill="white"/>
<path d="M43.6096 38.9592C39.5306 39.8272 41.1102 3.97741 45.1293 4.07834C56.4266 4.40131 59.226 2.22125 61.0656 16.1292L51.7677 16.3916C52.6875 12.8591 49.4683 8.27696 48.6485 13.9491C49.5482 15.6246 46.229 34.6597 51.3478 30.885C51.9877 30.0977 51.6877 27.0497 51.7477 25.9395H49.6282C49.1483 14.9584 49.8282 19.5608 59.4059 18.6524V38.9592C54.1272 38.3335 52.7075 41.4219 53.2274 34.2156C53.0274 40.2511 47.7087 38.9189 43.5696 38.9592H43.6096Z" fill="white"/>
<path d="M63.0451 38.7775C59.7459 37.2434 60.6857 25.677 60.6857 23.174C60.6857 20.6709 60.3258 19.9644 60.6457 20.1663C64.4648 22.6088 76.8419 20.7113 77.5418 22.306C79.0014 23.2345 80.781 35.2047 81.0809 36.6782C81.7608 40.0492 64.4448 39.4033 63.0451 38.7573V38.7775ZM69.6836 35.0835C72.5829 35.6689 70.7234 27.8369 71.2232 26.6055C71.2232 25.6164 70.5634 25.3137 69.6436 25.3137C66.7443 24.7283 68.6038 32.5603 68.104 33.7917C68.104 34.7606 68.7838 35.0835 69.6836 35.0835Z" fill="white"/>
</svg>
