<svg width="17" height="15" viewBox="0 0 17 15" fill="none" xmlns="http://www.w3.org/2000/svg">
<path d="M6.77898 2.64178C7.50795 0.880892 7.87337 0 8.50032 0C9.12728 0 9.49269 0.879994 10.2217 2.64178L10.256 2.72259C10.6678 3.71842 10.8737 4.21589 11.2947 4.5185C11.7139 4.82021 12.2658 4.8687 13.3685 4.96388L13.567 4.98095C15.3718 5.13719 16.2751 5.21531 16.4671 5.77114C16.661 6.32788 15.9904 6.91783 14.6493 8.09774L14.2032 8.49284C13.5243 9.08998 13.1849 9.389 13.0272 9.78051C12.9974 9.85368 12.9726 9.92867 12.953 10.005C12.8501 10.4127 12.9493 10.8464 13.1478 11.7129L13.2099 11.9823C13.5744 13.5762 13.7571 14.3726 13.439 14.7166C13.3198 14.8448 13.1649 14.9371 12.9929 14.9823C12.5329 15.1045 11.88 14.589 10.5722 13.5582C9.71436 12.8811 9.28495 12.5426 8.79247 12.4663C8.59893 12.4364 8.40172 12.4364 8.20818 12.4663C7.71477 12.5426 7.28629 12.8811 6.42747 13.5582C5.12162 14.589 4.46777 15.1045 4.00776 14.9823C3.8361 14.9369 3.68156 14.8447 3.56258 14.7166C3.24354 14.3726 3.42624 13.5762 3.79073 11.9832L3.85287 11.7129C4.05135 10.8455 4.15058 10.4127 4.04764 10.0041C4.02801 9.92777 4.00322 9.85278 3.97344 9.77961C3.81577 9.389 3.47633 9.08998 2.79743 8.49194L2.3504 8.09774C1.01024 6.91783 0.33969 6.32698 0.5326 5.77204C0.726437 5.21531 1.62885 5.13719 3.43366 4.98095L3.63214 4.96299C4.7358 4.8678 5.28671 4.82021 5.70684 4.5176C6.12698 4.21499 6.33287 3.71842 6.74559 2.72349L6.77898 2.64178Z" fill="#F3CC0B"/>
</svg>
