<svg width="20" height="20" viewBox="0 0 20 20" fill="none" xmlns="http://www.w3.org/2000/svg">
<path d="M6.25 7.08317V6.6665C6.25 6.27984 6.25 6.08567 6.26667 5.92317C6.34217 5.15574 6.68143 4.43822 7.22663 3.89287C7.77183 3.34751 8.48925 3.00806 9.25667 2.93234C9.41917 2.9165 9.61333 2.9165 10 2.9165C10.3867 2.9165 10.5808 2.9165 10.7433 2.93317C11.5108 3.00868 12.2283 3.34793 12.7736 3.89313C13.319 4.43834 13.6584 5.15576 13.7342 5.92317C13.75 6.08567 13.75 6.27984 13.75 6.6665V7.08317M12.9167 11.2498V9.58317M7.08333 11.2498V9.58317" stroke="#999999" stroke-linecap="round"/>
<path d="M4.5835 10.083C4.5835 8.66884 4.5835 7.96134 5.02266 7.52217C5.46183 7.08301 6.16933 7.08301 7.5835 7.08301H12.4168C13.831 7.08301 14.5385 7.08301 14.9777 7.52217C15.4168 7.96134 15.4168 8.66884 15.4168 10.083V12.083C15.4168 14.4397 15.4168 15.6188 14.6843 16.3505C13.9527 17.083 12.7735 17.083 10.4168 17.083H9.5835C7.22683 17.083 6.04766 17.083 5.316 16.3505C4.5835 15.6188 4.5835 14.4397 4.5835 12.083V10.083Z" stroke="#999999"/>
</svg>
