<svg width="16" height="26" viewBox="0 0 16 26" fill="none" xmlns="http://www.w3.org/2000/svg">
<path d="M3.22726 22.3143V23.6476C3.22726 24.0012 3.37093 24.3404 3.62666 24.5904C3.88239 24.8405 4.22924 24.9809 4.5909 24.9809C4.95255 24.9809 5.2994 24.8405 5.55513 24.5904C5.81086 24.3404 5.95453 24.0012 5.95453 23.6476V22.3143M10.0454 22.3143V23.6476C10.0454 24.0012 10.1891 24.3404 10.4448 24.5904C10.7006 24.8405 11.0474 24.9809 11.4091 24.9809C11.7707 24.9809 12.1176 24.8405 12.3733 24.5904C12.629 24.3404 12.7727 24.0012 12.7727 23.6476V22.3143M4.5909 6.31427V2.31427C4.5909 1.96065 4.73456 1.62151 4.9903 1.37146C5.24603 1.12141 5.59287 0.980938 5.95453 0.980938H10.0454C10.4071 0.980938 10.7539 1.12141 11.0097 1.37146C11.2654 1.62151 11.4091 1.96065 11.4091 2.31427V6.31427M0.499986 7.6476C0.499986 7.29398 0.643655 6.95484 0.899386 6.7048C1.15512 6.45475 1.50196 6.31427 1.86362 6.31427H14.1363C14.498 6.31427 14.8449 6.45475 15.1006 6.7048C15.3563 6.95484 15.5 7.29398 15.5 7.6476V20.9809C15.5 21.3346 15.3563 21.6737 15.1006 21.9237C14.8449 22.1738 14.498 22.3143 14.1363 22.3143H1.86362C1.50196 22.3143 1.15512 22.1738 0.899386 21.9237C0.643655 21.6737 0.499986 21.3346 0.499986 20.9809V7.6476Z" stroke="#79D893" stroke-linecap="round" stroke-linejoin="round"/>
</svg>
