<svg width="20" height="16" viewBox="0 0 20 16" fill="none" xmlns="http://www.w3.org/2000/svg">
<path d="M19.8045 3.90788L17.1379 1.18076C17.0128 1.05283 16.8431 0.980957 16.6662 0.980957C16.4893 0.980957 16.3197 1.05283 16.1946 1.18076C16.0695 1.30869 15.9992 1.4822 15.9992 1.66312C15.9992 1.84404 16.0695 2.01755 16.1946 2.14548L17.7237 3.70846H16.6662C12.5555 3.70846 11.5789 6.10492 10.7181 8.21845C9.93645 10.1368 9.30814 11.6776 6.59488 11.8694C6.42462 11.0427 5.9603 10.3102 5.29194 9.81379C4.62358 9.31738 3.79879 9.09244 2.97749 9.18261C2.15618 9.27277 1.39686 9.6716 0.846744 10.3018C0.296628 10.932 -0.00509739 11.7486 6.51694e-05 12.5933C0.00522772 13.4381 0.31691 14.2508 0.874686 14.8739C1.43246 15.497 2.19659 15.8861 3.01894 15.9658C3.84128 16.0454 4.66326 15.81 5.3255 15.305C5.98774 14.8001 6.44307 14.0617 6.60322 13.2329C10.2081 13.0071 11.1314 10.7487 11.9481 8.74257C12.7839 6.69126 13.4438 5.07202 16.6662 5.07202H17.7237L16.1946 6.63501C16.0695 6.76294 15.9992 6.93645 15.9992 7.11737C15.9992 7.29829 16.0695 7.4718 16.1946 7.59973C16.3197 7.72766 16.4893 7.79953 16.6662 7.79953C16.8431 7.79953 17.0128 7.72766 17.1379 7.59973L19.8045 4.8726C19.8665 4.80928 19.9156 4.73409 19.9492 4.65132C19.9827 4.56856 20 4.47984 20 4.39024C20 4.30065 19.9827 4.21193 19.9492 4.12916C19.9156 4.04639 19.8665 3.9712 19.8045 3.90788ZM3.33332 14.617C2.93777 14.617 2.5511 14.497 2.22221 14.2723C1.89332 14.0475 1.63699 13.7281 1.48562 13.3543C1.33424 12.9806 1.29464 12.5694 1.37181 12.1726C1.44898 11.7758 1.63945 11.4114 1.91915 11.1253C2.19884 10.8393 2.5552 10.6445 2.94315 10.5656C3.3311 10.4867 3.73322 10.5272 4.09866 10.682C4.4641 10.8368 4.77645 11.0989 4.99621 11.4353C5.21596 11.7716 5.33326 12.1671 5.33326 12.5716C5.33326 13.1141 5.12255 13.6343 4.74749 14.0179C4.37243 14.4015 3.86373 14.617 3.33332 14.617Z" fill="#79D893"/>
</svg>
