<svg width="20" height="18" viewBox="0 0 20 18" fill="none" xmlns="http://www.w3.org/2000/svg">
<path fill-rule="evenodd" clip-rule="evenodd" d="M6 0.48149C4.93913 0.48149 3.92172 0.929243 3.17157 1.72625C2.42143 2.52325 2 3.60422 2 4.73136C2 5.85849 2.42143 6.93946 3.17157 7.73647C3.92172 8.53347 4.93913 8.98122 6 8.98122C7.06087 8.98122 8.07828 8.53347 8.82843 7.73647C9.57857 6.93946 10 5.85849 10 4.73136C10 3.60422 9.57857 2.52325 8.82843 1.72625C8.07828 0.929243 7.06087 0.48149 6 0.48149ZM4 10.0437C2.93913 10.0437 1.92172 10.4914 1.17157 11.2884C0.421427 12.0855 0 13.1664 0 14.2936V15.356C0 15.9196 0.210714 16.4601 0.585786 16.8586C0.960859 17.2571 1.46957 17.481 2 17.481H10C10.5304 17.481 11.0391 17.2571 11.4142 16.8586C11.7893 16.4601 12 15.9196 12 15.356V14.2936C12 13.1664 11.5786 12.0855 10.8284 11.2884C10.0783 10.4914 9.06087 10.0437 8 10.0437H4ZM11.25 7.81782C11.728 6.9041 12 5.85226 12 4.73136C12.0002 3.6513 11.7421 2.58888 11.25 1.64383C11.8178 1.073 12.5306 0.691446 13.3003 0.546332C14.07 0.401217 14.8628 0.4989 15.5808 0.827307C16.2988 1.15571 16.9106 1.70045 17.3403 2.3942C17.7701 3.08794 17.9992 3.90028 17.9992 4.73083C17.9992 5.56137 17.7701 6.37371 17.3403 7.06746C16.9106 7.7612 16.2988 8.30594 15.5808 8.63434C14.8628 8.96275 14.07 9.06043 13.3003 8.91532C12.5306 8.77021 11.8178 8.38865 11.25 7.81782ZM13.466 17.481C13.806 16.8562 14.001 16.1306 14.001 15.356V14.2936C14.0028 12.7251 13.4586 11.2114 12.473 10.0437H16C17.0609 10.0437 18.0783 10.4914 18.8284 11.2884C19.5786 12.0855 20 13.1664 20 14.2936V15.356C20 15.9196 19.7893 16.4601 19.4142 16.8586C19.0391 17.2571 18.5304 17.481 18 17.481H13.466Z" fill="#79D893"/>
</svg>
